<mxfile host="app.diagrams.net" modified="2023-04-09T05:34:33.573Z" agent="Mozilla/5.0 (Windows NT 10.0; Win64; x64) AppleWebKit/537.36 (KHTML, like Gecko) Chrome/110.0.0.0 Safari/537.36 OPR/96.0.0.0" etag="FXeBAS2-2b_cHh3kvALt" version="21.1.5" type="github">
  <diagram name="Página-1" id="vaoggJhOMlqYbz01GgTP">
    <mxGraphModel dx="1009" dy="581" grid="1" gridSize="10" guides="1" tooltips="1" connect="1" arrows="1" fold="1" page="1" pageScale="1" pageWidth="827" pageHeight="1169" math="0" shadow="0">
      <root>
        <mxCell id="0" />
        <mxCell id="1" parent="0" />
        <mxCell id="QBEMu_gbD7yfZX7ofsmX-1" value="Animal" style="swimlane;fontStyle=1;align=center;verticalAlign=top;childLayout=stackLayout;horizontal=1;startSize=26;horizontalStack=0;resizeParent=1;resizeParentMax=0;resizeLast=0;collapsible=1;marginBottom=0;whiteSpace=wrap;html=1;" parent="1" vertex="1">
          <mxGeometry x="20" y="222" width="270" height="420" as="geometry">
            <mxRectangle y="280" width="100" height="30" as="alternateBounds" />
          </mxGeometry>
        </mxCell>
        <mxCell id="QBEMu_gbD7yfZX7ofsmX-2" value="# string nombre&lt;br style=&quot;border-color: var(--border-color);&quot;&gt;# string especie&lt;br style=&quot;border-color: var(--border-color);&quot;&gt;# int id&lt;br style=&quot;border-color: var(--border-color);&quot;&gt;# string habitatPertenece&lt;br style=&quot;border-color: var(--border-color);&quot;&gt;# string tipoAlimentacion&lt;br style=&quot;border-color: var(--border-color);&quot;&gt;# int horasDormir&lt;br style=&quot;border-color: var(--border-color);&quot;&gt;# int verificadorJugar&lt;br style=&quot;border-color: var(--border-color);&quot;&gt;# int contComida&lt;br style=&quot;border-color: var(--border-color);&quot;&gt;# unordered_map&amp;lt;int, string&amp;gt; mapaComidas" style="text;strokeColor=none;fillColor=none;align=left;verticalAlign=top;spacingLeft=4;spacingRight=4;overflow=hidden;rotatable=0;points=[[0,0.5],[1,0.5]];portConstraint=eastwest;whiteSpace=wrap;html=1;" parent="QBEMu_gbD7yfZX7ofsmX-1" vertex="1">
          <mxGeometry y="26" width="270" height="144" as="geometry" />
        </mxCell>
        <mxCell id="QBEMu_gbD7yfZX7ofsmX-3" value="" style="line;strokeWidth=1;fillColor=none;align=left;verticalAlign=middle;spacingTop=-1;spacingLeft=3;spacingRight=3;rotatable=0;labelPosition=right;points=[];portConstraint=eastwest;strokeColor=inherit;" parent="QBEMu_gbD7yfZX7ofsmX-1" vertex="1">
          <mxGeometry y="170" width="270" height="8" as="geometry" />
        </mxCell>
        <mxCell id="QBEMu_gbD7yfZX7ofsmX-4" value="+ Animal() = default&lt;br style=&quot;border-color: var(--border-color);&quot;&gt;+ Animal(string nombre, string especie, int id, string habitatPertenece, string tipoAlimentacion, int horasDormir)&lt;br style=&quot;border-color: var(--border-color);&quot;&gt;+ int getId()&lt;br style=&quot;border-color: var(--border-color);&quot;&gt;+ string getHabitatPertenece()&lt;br style=&quot;border-color: var(--border-color);&quot;&gt;+ string getNombre()&lt;br style=&quot;border-color: var(--border-color);&quot;&gt;+ string getAlimentacion()&lt;br style=&quot;border-color: var(--border-color);&quot;&gt;+ string getEspecie()&lt;br style=&quot;border-color: var(--border-color);&quot;&gt;+ void agregarComida(string comida)&lt;br style=&quot;border-color: var(--border-color);&quot;&gt;+ void comer(Animal* pAnimal)&lt;br style=&quot;border-color: var(--border-color);&quot;&gt;+ void mostrarComida()&lt;br style=&quot;border-color: var(--border-color);&quot;&gt;+ void jugar(Animal* pAnimal)&lt;br style=&quot;border-color: var(--border-color);&quot;&gt;+ void dormir(Animal* pAnimal)&lt;br style=&quot;border-color: var(--border-color);&quot;&gt;+ int getHorasDormir()&lt;br style=&quot;border-color: var(--border-color);&quot;&gt;+ void eliminarComida(int eliminar)" style="text;strokeColor=none;fillColor=none;align=left;verticalAlign=top;spacingLeft=4;spacingRight=4;overflow=hidden;rotatable=0;points=[[0,0.5],[1,0.5]];portConstraint=eastwest;whiteSpace=wrap;html=1;" parent="QBEMu_gbD7yfZX7ofsmX-1" vertex="1">
          <mxGeometry y="178" width="270" height="242" as="geometry" />
        </mxCell>
        <mxCell id="QBEMu_gbD7yfZX7ofsmX-5" value="Sistema" style="swimlane;fontStyle=1;align=center;verticalAlign=top;childLayout=stackLayout;horizontal=1;startSize=30;horizontalStack=0;resizeParent=1;resizeParentMax=0;resizeLast=0;collapsible=1;marginBottom=0;whiteSpace=wrap;html=1;" parent="1" vertex="1">
          <mxGeometry x="860" y="220" width="290" height="280" as="geometry" />
        </mxCell>
        <mxCell id="QBEMu_gbD7yfZX7ofsmX-6" value="# int contHabitats &amp;nbsp;&lt;br style=&quot;border-color: var(--border-color);&quot;&gt;# int contAnimales&lt;br style=&quot;border-color: var(--border-color);&quot;&gt;# unordered_map&amp;lt;int, Animal*&amp;gt; mapaAnimalesTotal&lt;br style=&quot;border-color: var(--border-color);&quot;&gt;# unordered_map&amp;lt;int, Habitat*&amp;gt; mapaHabitats" style="text;strokeColor=none;fillColor=none;align=left;verticalAlign=top;spacingLeft=4;spacingRight=4;overflow=hidden;rotatable=0;points=[[0,0.5],[1,0.5]];portConstraint=eastwest;whiteSpace=wrap;html=1;" parent="QBEMu_gbD7yfZX7ofsmX-5" vertex="1">
          <mxGeometry y="30" width="290" height="70" as="geometry" />
        </mxCell>
        <mxCell id="QBEMu_gbD7yfZX7ofsmX-7" value="" style="line;strokeWidth=1;fillColor=none;align=left;verticalAlign=middle;spacingTop=-1;spacingLeft=3;spacingRight=3;rotatable=0;labelPosition=right;points=[];portConstraint=eastwest;strokeColor=inherit;" parent="QBEMu_gbD7yfZX7ofsmX-5" vertex="1">
          <mxGeometry y="100" width="290" height="8" as="geometry" />
        </mxCell>
        <mxCell id="QBEMu_gbD7yfZX7ofsmX-8" value="+ Sistema() = default&lt;br&gt;+ void añadirHabitat()&lt;br style=&quot;border-color: var(--border-color);&quot;&gt;+ string cambiarIntHabitat(int opc)&lt;br style=&quot;border-color: var(--border-color);&quot;&gt;+ void añadirAnimalHabitat()&lt;br style=&quot;border-color: var(--border-color);&quot;&gt;+ Animal* crearAnimal()&lt;br style=&quot;border-color: var(--border-color);&quot;&gt;+ void mostrarHabitats()&lt;br style=&quot;border-color: var(--border-color);&quot;&gt;+ void listarHabitats()&lt;br style=&quot;border-color: var(--border-color);&quot;&gt;+ void ingresarAccionAnimal();&lt;br style=&quot;border-color: var(--border-color);&quot;&gt;+ void mostrarAnimalTotal();&lt;br style=&quot;border-color: var(--border-color);&quot;&gt;+ void editarAlimentacion();&lt;br style=&quot;border-color: var(--border-color);&quot;&gt;+ Animal* obtenerAnimalMap();" style="text;strokeColor=none;fillColor=none;align=left;verticalAlign=top;spacingLeft=4;spacingRight=4;overflow=hidden;rotatable=0;points=[[0,0.5],[1,0.5]];portConstraint=eastwest;whiteSpace=wrap;html=1;" parent="QBEMu_gbD7yfZX7ofsmX-5" vertex="1">
          <mxGeometry y="108" width="290" height="172" as="geometry" />
        </mxCell>
        <mxCell id="QBEMu_gbD7yfZX7ofsmX-9" value="Habitat" style="swimlane;fontStyle=1;align=center;verticalAlign=top;childLayout=stackLayout;horizontal=1;startSize=26;horizontalStack=0;resizeParent=1;resizeParentMax=0;resizeLast=0;collapsible=1;marginBottom=0;whiteSpace=wrap;html=1;" parent="1" vertex="1">
          <mxGeometry x="450" y="240" width="270" height="190" as="geometry" />
        </mxCell>
        <mxCell id="QBEMu_gbD7yfZX7ofsmX-10" value="# string tipoHabitat&amp;nbsp;&lt;br style=&quot;border-color: var(--border-color);&quot;&gt;# int contAnimal&lt;br style=&quot;border-color: var(--border-color);&quot;&gt;# unordered_map&amp;lt;int, Animal*&amp;gt; mapaAnimales" style="text;strokeColor=none;fillColor=none;align=left;verticalAlign=top;spacingLeft=4;spacingRight=4;overflow=hidden;rotatable=0;points=[[0,0.5],[1,0.5]];portConstraint=eastwest;whiteSpace=wrap;html=1;" parent="QBEMu_gbD7yfZX7ofsmX-9" vertex="1">
          <mxGeometry y="26" width="270" height="54" as="geometry" />
        </mxCell>
        <mxCell id="QBEMu_gbD7yfZX7ofsmX-11" value="" style="line;strokeWidth=1;fillColor=none;align=left;verticalAlign=middle;spacingTop=-1;spacingLeft=3;spacingRight=3;rotatable=0;labelPosition=right;points=[];portConstraint=eastwest;strokeColor=inherit;" parent="QBEMu_gbD7yfZX7ofsmX-9" vertex="1">
          <mxGeometry y="80" width="270" height="8" as="geometry" />
        </mxCell>
        <mxCell id="QBEMu_gbD7yfZX7ofsmX-12" value="+ Habitat() = default&lt;br style=&quot;border-color: var(--border-color);&quot;&gt;+ Habitat(string tipoHabitat)&lt;br style=&quot;border-color: var(--border-color);&quot;&gt;+ string getTipoHabitat()&lt;br style=&quot;border-color: var(--border-color);&quot;&gt;+ void agregarAnimal(Animal* pAnimal)&lt;br style=&quot;border-color: var(--border-color);&quot;&gt;+ int getContAnimal()&lt;br style=&quot;border-color: var(--border-color);&quot;&gt;+ void listarAnimales()" style="text;strokeColor=none;fillColor=none;align=left;verticalAlign=top;spacingLeft=4;spacingRight=4;overflow=hidden;rotatable=0;points=[[0,0.5],[1,0.5]];portConstraint=eastwest;whiteSpace=wrap;html=1;" parent="QBEMu_gbD7yfZX7ofsmX-9" vertex="1">
          <mxGeometry y="88" width="270" height="102" as="geometry" />
        </mxCell>
        <mxCell id="QBEMu_gbD7yfZX7ofsmX-13" value="" style="endArrow=diamondThin;endFill=0;endSize=24;html=1;rounded=0;" parent="1" edge="1">
          <mxGeometry width="160" relative="1" as="geometry">
            <mxPoint x="450" y="324" as="sourcePoint" />
            <mxPoint x="290" y="324" as="targetPoint" />
          </mxGeometry>
        </mxCell>
        <mxCell id="QBEMu_gbD7yfZX7ofsmX-14" value="" style="endArrow=diamondThin;endFill=0;endSize=24;html=1;rounded=0;exitX=-0.003;exitY=1.064;exitDx=0;exitDy=0;exitPerimeter=0;" parent="1" source="QBEMu_gbD7yfZX7ofsmX-6" edge="1">
          <mxGeometry width="160" relative="1" as="geometry">
            <mxPoint x="770" y="380" as="sourcePoint" />
            <mxPoint x="720" y="324" as="targetPoint" />
          </mxGeometry>
        </mxCell>
        <mxCell id="QBEMu_gbD7yfZX7ofsmX-15" value="" style="endArrow=diamondThin;endFill=0;endSize=24;html=1;rounded=0;exitX=0.521;exitY=0.001;exitDx=0;exitDy=0;exitPerimeter=0;entryX=0.5;entryY=0;entryDx=0;entryDy=0;" parent="1" source="QBEMu_gbD7yfZX7ofsmX-5" target="QBEMu_gbD7yfZX7ofsmX-1" edge="1">
          <mxGeometry width="160" relative="1" as="geometry">
            <mxPoint x="690" y="220" as="sourcePoint" />
            <mxPoint x="420" y="150" as="targetPoint" />
            <Array as="points">
              <mxPoint x="1010" y="130" />
              <mxPoint x="155" y="130" />
            </Array>
          </mxGeometry>
        </mxCell>
      </root>
    </mxGraphModel>
  </diagram>
</mxfile>
